<svg width="24" height="24" viewBox="0 0 24 24" fill="none" xmlns="http://www.w3.org/2000/svg">
<g clip-path="url(#clip0_12_755)">
<path d="M22.1064 18.4959C20.8008 18.463 19.7887 18.5955 18.9398 18.96C18.695 19.0591 18.3031 19.0594 18.2704 19.3743C18.401 19.5067 18.4173 19.7223 18.5318 19.9044C18.7279 20.2356 19.0704 20.6832 19.3804 20.9153C19.7232 21.1803 20.0661 21.4452 20.4252 21.6773C21.0616 22.075 21.78 22.3068 22.4004 22.7045C22.7596 22.9363 23.1184 23.2349 23.4775 23.4833C23.6572 23.6158 23.7712 23.8313 24 23.9141V23.8644C23.8855 23.7151 23.8528 23.4999 23.7388 23.334C23.5756 23.1684 23.4124 23.0194 23.2492 22.8535C22.7757 22.2075 22.1882 21.6439 21.5515 21.1803C21.0292 20.8155 19.8864 20.3187 19.6744 19.7055C19.6744 19.7055 19.6579 19.6891 19.6418 19.6726C20.0008 19.6395 20.4252 19.507 20.7681 19.4074C21.323 19.2581 21.8289 19.2912 22.4001 19.1422C22.6615 19.0759 22.9226 18.9931 23.1837 18.9101V18.7613C22.89 18.463 22.6778 18.0653 22.3677 17.7835C21.5352 17.0544 20.621 16.3419 19.6744 15.7455C19.168 15.4143 18.5152 15.1987 17.9767 14.917C17.7808 14.8176 17.4544 14.7679 17.3402 14.6021C17.0462 14.2378 16.883 13.7573 16.6708 13.3265C16.1976 12.415 15.7404 11.4043 15.3324 10.4434C15.0386 9.79729 14.8591 9.15097 14.4998 8.55457C12.8186 5.73769 10.9905 4.03105 8.18299 2.35777C7.57891 2.00977 6.86059 1.86049 6.09355 1.67857C5.68555 1.66177 5.27755 1.62865 4.86955 1.61185C4.60795 1.49593 4.34683 1.18129 4.11835 1.03201C3.18811 0.435611 0.788594 -0.856789 0.103154 0.849851C-0.337726 1.92673 0.755954 2.98729 1.13131 3.53401C1.40899 3.91513 1.76779 4.34593 1.96387 4.77673C2.07811 5.05825 2.11051 5.35681 2.22499 5.65513C2.48611 6.38377 2.73091 7.19593 3.07387 7.87513C3.25339 8.22313 3.44923 8.58769 3.67771 8.90233C3.80827 9.08473 4.03675 9.16753 4.08571 9.46585C3.85747 9.79705 3.84091 10.2943 3.71035 10.7086C3.12259 12.5808 3.35131 14.9004 4.18363 16.2756C4.44475 16.6899 5.06515 17.6014 5.89771 17.2534C6.63211 16.9551 6.46891 16.0107 6.68107 15.1822C6.73027 14.983 6.69763 14.851 6.79531 14.7183V14.7514C7.02403 15.2153 7.25227 15.6627 7.46467 16.1266C7.97059 16.9385 8.85187 17.7835 9.58651 18.3471C9.97843 18.6451 10.2885 19.1587 10.7784 19.3411V19.2912H10.7455C10.6476 19.1422 10.5007 19.0759 10.3701 18.96C10.0764 18.6617 9.74971 18.2971 9.52147 17.9657C8.83579 17.0379 8.23171 16.0107 7.69315 14.9501C7.43203 14.4365 7.20355 13.8732 6.99139 13.3596C6.89323 13.1604 6.89323 12.8623 6.73003 12.7632C6.48523 13.1275 6.12619 13.4424 5.94667 13.8898C5.63659 14.6021 5.60395 15.4803 5.48971 16.3915C5.42419 16.4083 5.45683 16.3915 5.42419 16.4251C4.90195 16.2922 4.72243 15.7455 4.52659 15.2815C4.03675 14.1053 3.95515 12.2163 4.37947 10.8576C4.49395 10.5096 4.98355 9.41617 4.78771 9.08473C4.68979 8.76985 4.36315 8.58769 4.18363 8.33905C3.97147 8.02417 3.74299 7.62673 3.59611 7.27873C3.20419 6.35089 3.00835 5.32345 2.58403 4.39561C2.38819 3.96481 2.04547 3.51745 1.76803 3.11977C1.45771 2.67241 1.11499 2.35753 0.870194 1.82737C0.788594 1.64521 0.674114 1.34689 0.804914 1.14817C0.837554 1.01545 0.902594 0.965771 1.03339 0.932651C1.24555 0.750251 1.84939 0.982331 2.06155 1.08169C2.66563 1.33009 3.17155 1.56241 3.67771 1.91017C3.90619 2.07577 4.15099 2.39089 4.44475 2.47369H4.78771C5.30995 2.58961 5.89747 2.50681 6.38731 2.65585C7.25251 2.93737 8.03611 3.35185 8.73787 3.79921C10.8763 5.17441 12.6391 7.12945 13.8307 9.46561C14.0265 9.84673 14.1081 10.195 14.2876 10.5924C14.6306 11.4043 15.0549 12.2328 15.3976 13.0282C15.7404 13.8067 16.0668 14.6023 16.5566 15.2484C16.8014 15.5964 17.7806 15.7788 18.2215 15.961C18.5479 16.1098 19.0543 16.2427 19.3478 16.4249C19.9027 16.7727 20.4578 17.1706 20.98 17.5515C21.2414 17.7504 22.0574 18.1647 22.1064 18.4959Z" fill="#00546B"/>
<path d="M5.45684 4.09729C5.1794 4.09729 4.98356 4.13065 4.78772 4.18009V4.21321H4.82036C4.95092 4.47841 5.1794 4.66081 5.3426 4.89265C5.47316 5.15761 5.5874 5.42305 5.7182 5.68801C5.73428 5.67121 5.7506 5.65489 5.7506 5.65489C5.97932 5.48929 6.09356 5.22409 6.09356 4.82641C5.9954 4.71049 5.97908 4.59457 5.89748 4.47841C5.7998 4.31281 5.5874 4.23001 5.45684 4.09729Z" fill="#00546B"/>
</g>
<defs>
<clipPath id="clip0_12_755">
<rect width="24" height="24" fill="white"/>
</clipPath>
</defs>
</svg>
