<svg width="32" height="33" viewBox="0 0 32 33" fill="none" xmlns="http://www.w3.org/2000/svg">
<path d="M31.6674 25.11C30.5275 25.4 29.8225 25.1225 29.19 24.1725C27.77 22.045 26.2025 20.015 24.69 17.9475C24.495 17.68 24.2925 17.4175 24.04 17.085C22.25 19.5 20.4625 21.8 18.785 24.1925C18.1849 25.0475 17.555 25.42 16.4349 25.1175L23.165 16.085L16.9 7.92754C17.9774 7.71754 18.7225 7.82504 19.3825 8.79004C20.84 10.92 22.4474 12.9475 24.0499 15.0925C25.6624 12.955 27.25 10.925 28.75 8.81504C29.3525 7.96004 30 7.63504 31.0825 7.95004C30.2625 9.03754 29.46 10.1075 28.6525 11.17C27.5625 12.6025 26.4924 14.0525 25.3624 15.455C24.9599 15.955 25.025 16.28 25.385 16.7525C27.475 19.5 29.5399 22.275 31.6674 25.11ZM0.332451 15.935C0.512451 15.0325 0.632451 14.1125 0.882451 13.2275C2.38245 7.87004 8.53245 5.64254 12.7575 8.96254C15.2325 10.91 15.8475 13.655 15.725 16.75H1.77495C1.56495 22.3025 5.56245 25.655 10.6575 23.945C12.445 23.345 13.4975 21.945 14.025 20.195C14.2925 19.3175 14.735 19.18 15.56 19.43C15.1375 21.62 14.18 23.45 12.18 24.595C9.17995 26.31 4.89745 25.755 2.64495 23.3725C1.31495 21.9725 0.749951 20.23 0.499951 18.3475C0.462451 18.0475 0.384951 17.7525 0.324951 17.455C0.329951 16.9484 0.332451 16.4417 0.332451 15.935ZM1.79995 15.5625H14.4075C14.325 11.5475 11.825 8.69504 8.40745 8.67004C4.65745 8.64004 1.96245 11.425 1.79995 15.5625Z" fill="black"/>
</svg>
