<svg width="61" height="62" viewBox="0 0 61 62" fill="none" xmlns="http://www.w3.org/2000/svg">
<circle cx="30" cy="30" r="30" fill="#8C0404"/>
<g filter="url(#filter0_d_30_1417)">
<path d="M9.50004 37.1643L12.0557 34.4741L12.8627 35.0121L12.9193 37.6914L10.6327 41.3231L9.90356 38.6438L11.1141 36.6262L9.50004 37.1643Z" fill="#1C1B1B"/>
<path d="M39.0916 34.4744L36.536 32.3223L33.5769 35.8194L35.998 36.492L34.3839 38.6441L35.0564 39.7202L32.3663 39.9892L32.7698 42.8138L27.793 40.3927L26.8515 42.8138L26.717 45.2349H28.1966L29.4071 47.118L30.7522 45.504L32.7698 48.4631L34.7874 43.4864L36.536 44.8314L37.074 42.1413L40.934 39.9892L38.6474 36.492L39.0916 34.4744Z" fill="#2A2929"/>
<path d="M41.3785 22.0995L43.7994 26.9418L37.0743 23.8576L36.5362 32.3221L39.4547 32.3221L44.895 37.7024L44.895 31.1115L48.4665 33.1291L44.895 26.4038L46.7179 25.7312L41.3785 22.0995Z" fill="#2A2929"/>
<path d="M36.4953 13.3564L27.6586 14.7015L26.717 20.2163L31.2903 18.0642L27.7931 23.4445L30.3487 22.5029L28.0621 26.9417L30.0797 27.6142L29.1382 29.3628L32.9044 28.5557L36.9396 23.848L43.7994 26.9417L40.8403 20.8888L44.6065 21.2924L38.2439 18.4677L40.127 16.9881L34.653 15.105L36.4953 13.3564Z" fill="#1C1B1B"/>
<path d="M37.2086 23.3101L33.0388 28.2868L30.8867 30.0354L33.0388 30.4389L30.7522 31.515L31.8283 32.1875L29.8107 32.8601L33.8459 34.4741L31.9628 35.1467L33.7114 35.8192L36.6705 32.322L37.2086 23.3101Z" fill="#A6A5A5"/>
<path d="M12.0907 47.6748L11.258 45.8244L16.0694 47.2886L17.7306 46.458L22.1438 43.8898L25.5081 39.2091L25.641 40.2581L26.717 38.644L26.8515 42.6793L26.2464 45.0843L24.1184 47.0272L15.514 48.7851L12.0907 47.6748Z" fill="#A6A5A5"/>
<path d="M30.0797 27.749L25.641 31.2462L29.8107 32.9948L31.9628 32.3223L31.0213 31.5152L33.1734 30.4392L31.0213 30.0356L33.1734 28.4216L29.4072 29.2286L30.0797 27.749Z" fill="#161515"/>
<path d="M25.5064 40.6618V31.1118L33.9804 34.4745L32.0973 35.147L35.998 36.4921L34.3839 38.6442L35.3254 39.8548L32.5008 40.1238L32.9043 43.0829L27.9275 40.6618L26.8515 43.0829L26.5825 39.0477L25.5064 40.6618Z" fill="#1C1B1B"/>
<path d="M10.9797 26.8071L13.4008 29.0937V32.8599L12.3247 34.0705L10.9797 26.8071Z" fill="#A6A5A5"/>
<path d="M13.4008 19.6785C13.2663 23.5343 13.1587 31.8648 13.2663 32.7257L15.5529 29.4975L16.898 34.6088L22.4128 28.6905L25.641 31.3806L30.4832 27.6144L28.1966 26.9419L30.4832 22.3686L28.0621 23.1757L31.8283 17.6609L27.1206 19.6785L28.0621 12.9531L23.6234 17.1228L24.5649 10.6665L15.5529 19.6785L14.7459 24.2517L13.4008 19.6785Z" fill="#161515"/>
<path d="M17.8395 49.27L17.8061 46.3824L15.9939 47.2885L17.8395 49.27Z" fill="#D9D9D9"/>
<path d="M10.5178 47.1196L9.95317 44.4946L11.073 45.7318L10.5178 47.1196Z" fill="#D9D9D9"/>
<path d="M25.5065 34.0708V39.3166L22.1438 43.8898L17.5041 46.609L17.7051 42.8138L22.9101 38.644L25.5065 34.0708Z" fill="#D9D9D9"/>
<path d="M9.93164 44.5289L10.4817 41.4741L13.0491 43.1353L17.705 42.8135L17.5705 46.5797L15.9939 47.3638L11.0729 45.8242L9.93164 44.5289Z" fill="#A6A5A5"/>
<path d="M25.5065 34.0708L16.629 37.7025L13.0491 43.2111L17.705 42.8138L22.9508 38.644L25.5065 34.0708Z" fill="#D3D0D0"/>
<path d="M12.8628 35.147L16.629 37.7026L13.0491 43.2112L10.4579 41.4761L12.8628 37.5681V35.147Z" fill="#D3D0D0"/>
<path d="M25.4325 34.2256L16.4469 37.7745L22.9407 38.6806L25.4325 34.2256Z" fill="white"/>
<path d="M12.898 35.207L16.4469 37.7743L12.898 37.6233V35.207Z" fill="white"/>
<path d="M13.898 36.6266L13.6286 35.6851L15.1086 36.7611C15.1086 36.7611 14.8979 37.2631 14.6347 37.4725C14.3216 37.7216 13.8041 37.6235 13.8041 37.6235C13.8041 37.6235 13.4714 37.3805 13.4265 37.246C13.3477 37.0096 13.36 36.6266 13.36 36.6266H13.898Z" fill="#F61815"/>
<path d="M19.816 37.0299L19.1435 36.6264L21.1611 35.8193C21.1611 35.8193 21.2398 36.6618 20.8921 37.2989C20.4883 38.0386 19.9958 38.2274 19.9958 38.2274C19.9958 38.2274 19.3228 38.1584 19.1652 38.0008C19.0076 37.8433 18.8745 37.5679 18.8745 37.5679L19.816 37.0299Z" fill="#F61815"/>
<path d="M15.5529 29.3628L16.9 34.3762L16.4469 37.7741L11.7867 34.4741L15.5529 29.3628Z" fill="#B1B0B0"/>
<path d="M22.4128 28.5562L27.9167 33.25L16.4469 37.7745L16.9 34.3766L22.4128 28.5562Z" fill="#B1B0B0"/>
<path d="M16.4135 44.781V43.8906L15.741 44.2682V44.6457L16.4135 44.781Z" fill="#161515"/>
<path d="M10.7082 43.4377L10.7837 42.6826L11.283 43.3179L11.1485 43.7215L10.7082 43.4377Z" fill="#161515"/>
</g>
<defs>
<filter id="filter0_d_30_1417" x="9.50005" y="10.6665" width="50.9664" height="50.6035" filterUnits="userSpaceOnUse" color-interpolation-filters="sRGB">
<feFlood flood-opacity="0" result="BackgroundImageFix"/>
<feColorMatrix in="SourceAlpha" type="matrix" values="0 0 0 0 0 0 0 0 0 0 0 0 0 0 0 0 0 0 127 0" result="hardAlpha"/>
<feOffset dx="8" dy="8"/>
<feGaussianBlur stdDeviation="2"/>
<feComposite in2="hardAlpha" operator="out"/>
<feColorMatrix type="matrix" values="0 0 0 0 0 0 0 0 0 0 0 0 0 0 0 0 0 0 0.25 0"/>
<feBlend mode="normal" in2="BackgroundImageFix" result="effect1_dropShadow_30_1417"/>
<feBlend mode="normal" in="SourceGraphic" in2="effect1_dropShadow_30_1417" result="shape"/>
</filter>
</defs>
</svg>
