<svg width="32" height="33" viewBox="0 0 32 33" fill="none" xmlns="http://www.w3.org/2000/svg">
<path d="M6.50687 0.654165C6.45609 0.67355 5.02152 1.48479 3.32035 2.45498C1.25883 3.63161 0.200233 4.25094 0.143592 4.30909C0.0986702 4.35949 0.0478889 4.44672 0.0322639 4.50197C-0.0107048 4.64444 -0.0136345 25.5185 0.0293344 25.6688C0.0449594 25.7269 0.0957404 25.8122 0.141639 25.8597C0.252967 25.976 12.5596 32.999 12.709 33.0329C12.7784 33.0494 12.8565 33.0465 12.9336 33.0251C13.1016 32.9835 25.376 25.976 25.4854 25.8616C25.5303 25.8122 25.5811 25.7269 25.5977 25.6688C25.6192 25.5999 25.627 24.5086 25.627 22.2106V18.8522L28.6192 17.1464C31.4405 15.5365 31.6133 15.4357 31.6856 15.3252L31.7598 15.206V11.5889C31.7598 7.65096 31.7676 7.87292 31.6104 7.73044C31.5684 7.69361 30.1309 6.86105 28.4131 5.87923L25.293 4.0978H24.9463L21.8936 5.83755C20.2129 6.79708 18.7842 7.61704 18.7149 7.66163C18.6455 7.70718 18.5625 7.7915 18.5284 7.85256L18.4668 7.95821L18.4532 11.366L18.4405 14.7747L15.92 16.216C14.5332 17.0068 13.3789 17.662 13.3545 17.6679C13.3096 17.6805 13.3067 17.3558 13.3067 11.0917V4.49906L13.2403 4.38566C13.1573 4.24803 13.5303 4.46805 9.78422 2.33092C6.64262 0.537859 6.71781 0.575658 6.50687 0.654165ZM9.39457 3.26427C10.709 4.01251 11.7842 4.63184 11.7842 4.6396C11.7842 4.64735 10.6319 5.30836 9.22367 6.11184L6.66117 7.57149L4.10355 6.11184C2.69828 5.30836 1.54691 4.64735 1.54691 4.6396C1.54691 4.63184 2.69633 3.97084 4.1016 3.16929L6.65336 1.71255L6.82914 1.80754C6.92777 1.86084 8.08305 2.51604 9.39457 3.26427ZM27.6827 6.62262C29.0664 7.41351 30.211 8.06676 30.2217 8.07742C30.251 8.10359 25.1758 10.9986 25.1065 10.9957C25.0371 10.9938 20.0245 8.12491 20.0264 8.09002C20.0293 8.05028 25.0723 5.17073 25.1231 5.17848C25.1465 5.1843 26.2989 5.83465 27.6827 6.62262ZM3.70707 7.04036L6.14652 8.43409L6.16019 15.3349L6.17289 22.2368L6.23246 22.3298C6.26371 22.3792 6.3223 22.4461 6.36527 22.4771C6.40531 22.5062 7.76273 23.2738 9.3809 24.18L12.3203 25.8277V28.747C12.3203 30.3491 12.3096 31.6634 12.2959 31.6634C12.2852 31.6634 9.74418 30.2202 6.65043 28.4533L1.0264 25.2433L1.01859 15.3747L1.01371 5.50899L1.13871 5.5778C1.21097 5.6156 2.36527 6.2737 3.70707 7.04036ZM12.3203 11.8981V18.2571L12.2217 18.3211C12.0879 18.4054 7.20316 21.1919 7.18656 21.1919C7.17875 21.1919 7.17289 18.3211 7.17289 14.8116L7.17582 8.43409L9.72758 6.97736C11.1309 6.17581 12.2881 5.52546 12.3018 5.53031C12.3116 5.53613 12.3203 8.40211 12.3203 11.8981ZM22.0557 10.4355L24.6133 11.8952V14.7883C24.6133 17.5331 24.6104 17.6805 24.5684 17.6649C24.5411 17.6543 23.3838 16.9962 21.9952 16.2024L19.4668 14.7612V11.869C19.4668 10.2766 19.4746 8.97589 19.4825 8.97589C19.4932 8.97589 20.6504 9.63205 22.0557 10.4355ZM30.7735 11.8506C30.7735 13.4343 30.7627 14.7408 30.752 14.7534C30.7334 14.7825 25.6748 17.6756 25.6426 17.6756C25.6348 17.6756 25.627 16.3749 25.627 14.7825V11.8903L28.1787 10.4326C29.584 9.63205 30.7412 8.97589 30.752 8.97589C30.7657 8.97589 30.7735 10.2688 30.7735 11.8506ZM21.5577 17.1125C23.709 18.3415 24.0801 18.5615 24.043 18.5905C24.0186 18.6061 23.2032 19.0713 22.2325 19.6218C21.2618 20.1713 18.7471 21.5942 16.6426 22.7844L12.8184 24.9496L12.6963 24.8837C11.9659 24.4873 7.72758 22.0943 7.72758 22.0759C7.72562 22.0361 18.9414 15.6393 18.9864 15.6558C19.0079 15.6635 20.1651 16.3187 21.5577 17.1125ZM24.6084 22.3453L24.5996 25.2433L18.9786 28.4533C15.8858 30.2202 13.3438 31.6634 13.3311 31.6634C13.3174 31.6634 13.3067 30.4838 13.3067 28.747V25.8277L18.9414 22.639C22.0371 20.8857 24.5811 19.4502 24.5948 19.4473C24.6055 19.4473 24.6104 20.7509 24.6084 22.3453Z" fill="#F05340"/>
</svg>
