<svg width="32" height="33" viewBox="0 0 32 33" fill="none" xmlns="http://www.w3.org/2000/svg">
<path d="M17.1725 2.79872C16.4627 2.39953 15.5373 2.40132 14.8269 2.79872C11.2689 4.76227 7.71082 6.72641 4.15216 8.68906C3.45969 9.05335 2.99264 9.79698 3.00009 10.5688V22.4328C2.99509 23.2197 3.48622 23.9705 4.19655 24.3298C5.21871 24.8736 6.2118 25.4726 7.25244 25.9802C8.45451 26.5709 9.95843 26.7015 11.1752 26.0855C12.1629 25.575 12.6016 24.4395 12.6003 23.396C12.6083 19.4806 12.6016 15.5651 12.6034 11.6496C12.6269 11.4756 12.4962 11.2896 12.3064 11.2938C11.8517 11.2866 11.3964 11.2896 10.9417 11.2926C10.7699 11.2764 10.6022 11.4191 10.6152 11.5918C10.6091 15.482 10.6164 19.3734 10.6115 23.2642C10.6214 23.8024 10.2578 24.3196 9.73913 24.5014C8.5412 24.9213 5.12198 22.7012 5.12198 22.7012C4.9965 22.6431 4.91682 22.507 4.92912 22.3718C4.92912 18.4576 4.92973 14.5433 4.92912 10.6297C4.91187 10.4719 5.00912 10.3298 5.15402 10.2654C8.70033 8.3134 12.2448 6.35654 15.7911 4.40336C15.9143 4.32115 16.086 4.3214 16.2089 4.40396C19.7552 6.35654 23.3003 8.31161 26.8472 10.2637C26.9926 10.328 27.0857 10.4725 27.0709 10.6297C27.0703 14.5433 27.0721 18.4576 27.0697 22.3713C27.0802 22.5098 27.0086 22.644 26.8793 22.7048C23.3661 24.6462 19.8129 26.525 16.3315 28.5228C16.1796 28.6099 16.0075 28.7086 15.8373 28.6126C14.9218 28.1062 14.0174 27.5801 13.1049 27.0688C13.0057 27.0069 12.8794 26.9803 12.7759 27.0496C12.3668 27.2652 11.982 27.4398 11.5122 27.6258C10.8524 27.887 10.9578 27.9938 11.5529 28.3405C12.62 28.9444 13.6889 29.5459 14.756 30.1504C15.4585 30.5888 16.4024 30.62 17.1275 30.2149C20.6861 28.2538 24.2436 26.2904 27.8029 24.3293C28.5113 23.968 29.0049 23.2202 28.9999 22.4327V10.5688C29.0068 9.81264 28.5576 9.08227 27.886 8.71259C24.3156 6.73947 20.7435 4.77064 17.1725 2.79872Z" fill="#8CC84B"/>
<path d="M22.5419 11.7062C21.1452 10.959 19.4836 10.9192 17.9315 11.0169C16.8102 11.1277 15.6309 11.4371 14.814 12.2409C13.9761 13.0489 13.7937 14.3537 14.1917 15.4085C14.4769 16.1539 15.1948 16.6386 15.9372 16.895C16.8935 17.2326 17.8979 17.337 18.9026 17.4414C19.819 17.5366 20.7357 17.6319 21.6165 17.9042C21.9763 18.0234 22.3953 18.2058 22.5055 18.5973C22.6073 19.0609 22.4957 19.5998 22.1193 19.9219C20.9237 20.8682 17.5979 20.7232 16.4166 19.9784C15.939 19.6611 15.7332 19.0994 15.6495 18.5641C15.6402 18.3973 15.5059 18.2443 15.3248 18.257C14.8713 18.2516 14.4178 18.2528 13.9643 18.2564C13.8061 18.2431 13.6416 18.3557 13.6329 18.5172C13.5397 20.9689 15.7914 22.0377 17.9039 22.273C19.1108 22.388 20.3442 22.3814 21.5327 22.1224C22.4261 21.919 23.3219 21.5444 23.9369 20.8563C24.6953 20.02 24.8444 18.7749 24.5043 17.7332C24.2443 16.9559 23.5012 16.4573 22.7416 16.2008C21.7086 15.8466 20.4844 15.6562 19.5488 15.5671C18.1889 15.4376 16.5729 15.4905 16.188 14.5969C16.0345 14.129 16.1651 13.548 16.5951 13.2602C17.7328 12.4885 20.0483 12.591 21.2265 13.1675C21.7675 13.4384 22.081 13.9948 22.2104 14.5565C22.2344 14.7215 22.3454 14.8937 22.5364 14.8865C22.9868 14.8955 23.4372 14.8889 23.8875 14.8895C24.0422 14.9003 24.2116 14.813 24.2418 14.6546C24.2227 13.4806 23.6232 12.2788 22.5419 11.7062Z" fill="#8CC84B"/>
</svg>
