<svg width="24" height="24" viewBox="0 0 24 24" fill="none" xmlns="http://www.w3.org/2000/svg">
<path d="M23.0597 17.4636C21.7788 18.1313 15.144 20.8591 13.7316 21.5957C12.319 22.3322 11.5342 22.325 10.4184 21.7915C9.3024 21.2582 2.2416 18.4061 0.9696 17.7979C0.33432 17.4945 0 17.238 0 16.9958V14.5697C0 14.5697 9.192 12.5685 10.6762 12.0362C12.1601 11.5039 12.6749 11.4847 13.9378 11.9472C15.2006 12.4097 22.752 13.7724 24 14.2296L23.9995 16.6209C23.9995 16.8609 23.7115 17.124 23.0597 17.4636Z" fill="#5C9126"/>
<path d="M23.0591 15.0521C21.7785 15.7193 15.1439 18.4477 13.7313 19.184C12.3187 19.9208 11.5341 19.9133 10.4183 19.3798C9.30234 18.847 2.24202 15.9944 0.97002 15.3867C-0.30174 14.7788 -0.32838 14.3602 0.92106 13.8711C2.17026 13.3817 9.19194 10.6273 10.6761 10.0945C12.16 9.56238 12.6748 9.54294 13.9377 10.0057C15.2006 10.4684 21.7958 13.0933 23.0435 13.5505C24.292 14.0079 24.3398 14.3847 23.0591 15.0521Z" fill="#C6302B"/>
<path d="M23.0597 13.5384C21.7788 14.206 15.144 16.9344 13.7316 17.6707C12.319 18.407 11.5342 18.3998 10.4184 17.8663C9.3024 17.3332 2.2416 14.4808 0.9696 13.8727C0.33432 13.5693 0 13.3132 0 13.0708V10.6444C0 10.6444 9.192 8.64356 10.6762 8.11124C12.1601 7.57868 12.6749 7.55924 13.9378 8.02196C15.2006 8.48468 22.752 9.84716 24 10.3041L23.9995 12.696C23.9995 12.9355 23.7115 13.1988 23.0597 13.5384Z" fill="#5C9126"/>
<path d="M23.0591 11.1269C21.7785 11.7944 15.1439 14.5225 13.7313 15.2593C12.3187 15.9961 11.5341 15.9884 10.4183 15.4548C9.30234 14.922 2.24202 12.0694 0.97002 11.4617C-0.30174 10.854 -0.32838 10.4355 0.92106 9.94613C2.17026 9.45677 9.19194 6.70157 10.6761 6.16925C12.1603 5.63693 12.6748 5.61773 13.9377 6.08045C15.2006 6.54317 21.7958 9.16781 23.0435 9.62525C24.292 10.0827 24.3398 10.4595 23.0591 11.1269Z" fill="#C6302B"/>
<path d="M23.0597 9.4678C21.7788 10.135 15.144 12.8633 13.7316 13.6001C12.319 14.3364 11.5342 14.3292 10.4184 13.7957C9.3024 13.2624 2.2416 10.41 0.9696 9.80236C0.33432 9.49828 0 9.24244 0 9.00004V6.57364C0 6.57364 9.192 4.573 10.6762 4.04068C12.1601 3.50812 12.6749 3.48892 13.9378 3.95164C15.2006 4.41436 22.752 5.77636 24 6.23356L23.9995 8.62516C23.9995 8.86492 23.7115 9.1282 23.0597 9.4678Z" fill="#5C9126"/>
<path d="M23.0591 7.05599C21.7785 7.72367 15.1439 10.452 13.7313 11.1881C12.3189 11.9244 11.5341 11.9172 10.4183 11.3841C9.30234 10.8506 2.24202 7.99847 0.970262 7.39055C-0.301738 6.78287 -0.328137 6.36431 0.921062 5.87495C2.17026 5.38583 9.19194 2.63111 10.6761 2.09879C12.1603 1.56647 12.6748 1.54703 13.9377 2.00999C15.2006 2.47247 21.7958 5.09735 23.0435 5.55479C24.292 6.01175 24.3398 6.38831 23.0591 7.05599Z" fill="#C6302B"/>
<path d="M14.9328 4.69606L12.8692 4.91038L12.4075 6.02182L11.6613 4.7815L9.27861 4.56742L11.0565 3.92638L10.523 2.94214L12.1876 3.59302L13.7568 3.07942L13.3327 4.09702L14.9328 4.69606ZM12.2841 10.0884L8.43357 8.49118L13.9516 7.64398L12.2841 10.0884ZM6.94509 5.31406C8.57397 5.31406 9.89469 5.82574 9.89469 6.45718C9.89469 7.08862 8.57397 7.60054 6.94509 7.60054C5.31621 7.60054 3.99573 7.08862 3.99573 6.45718C3.99573 5.82598 5.31597 5.31406 6.94509 5.31406Z" fill="white"/>
<path d="M17.3712 4.99988L20.6374 6.2906L17.3743 7.57988L17.3712 4.99988Z" fill="#621B1C"/>
<path d="M13.7583 6.42932L17.3715 4.99988L17.3744 7.57988L17.0199 7.7186L13.7583 6.42932Z" fill="#9A2928"/>
</svg>
