<svg width="32" height="32" viewBox="0 0 32 32" fill="none" xmlns="http://www.w3.org/2000/svg">
<path fill-rule="evenodd" clip-rule="evenodd" d="M15.9884 7C11.7295 7 9.07636 9.10854 8.00582 13.3256C9.61164 11.2171 11.4735 10.4293 13.6145 10.939C14.8247 11.2402 15.7091 12.1207 16.6633 13.0707C18.2225 14.6695 20.0378 16.5 23.9942 16.5C28.2531 16.5 30.9295 14.3915 32 10.1744C30.3942 12.2829 28.5324 13.0707 26.4145 12.5378C25.2044 12.2366 24.32 11.3561 23.3658 10.4061C21.7833 8.83049 19.968 7 15.9884 7ZM8.00582 16.5C3.72364 16.5 1.07055 18.6085 0 22.8256C1.60582 20.7171 3.46764 19.9293 5.60873 20.439C6.81891 20.7402 7.70327 21.6207 8.65745 22.5707C10.2167 24.1695 12.032 26 15.9884 26C20.2473 26 22.9236 23.8915 23.9942 19.6744C22.3884 21.7829 20.5265 22.5707 18.3855 22.0378C17.1753 21.7366 16.2909 20.8561 15.3367 19.9061C13.7775 18.3305 11.9622 16.5 8.00582 16.5Z" fill="#38BDF8"/>
</svg>
