<svg width="32" height="32" viewBox="0 0 32 32" fill="none" xmlns="http://www.w3.org/2000/svg">
<g clip-path="url(#clip0_12_751)">
<path d="M31.6314 4.73638L16.874 31.5825C16.8061 31.7082 16.7056 31.8134 16.583 31.8869C16.4604 31.9604 16.3203 31.9995 16.1774 32.0001C16.0344 32.0007 15.894 31.9629 15.7708 31.8904C15.6476 31.818 15.5461 31.7137 15.4772 31.5885L0.427557 4.73862C0.0902774 4.13766 0.595558 3.40966 1.265 3.53126L16.0384 6.21766C16.1325 6.23462 16.2292 6.23462 16.3232 6.21702L30.7872 3.5351C31.4548 3.41126 31.9623 4.13414 31.6314 4.73638Z" fill="url(#paint0_linear_12_751)"/>
<path d="M23.0755 0.00805266L12.1549 2.18501C12.0675 2.20229 11.9885 2.24901 11.9299 2.31685C11.8716 2.38555 11.8371 2.47135 11.8317 2.56133L11.1597 14.1037C11.1562 14.1668 11.1671 14.2298 11.1916 14.2881C11.2162 14.3463 11.2536 14.3981 11.3011 14.4397C11.3486 14.4803 11.4049 14.5092 11.4655 14.524C11.5261 14.5389 11.5894 14.5394 11.6502 14.5255L14.6909 13.8119C14.9754 13.7447 15.2323 13.9997 15.1741 14.2906L14.2704 18.7911C14.2096 19.0938 14.4893 19.3527 14.7798 19.2628L16.6582 18.6826C16.9491 18.5927 17.2288 18.8522 17.167 19.1553L15.7315 26.2241C15.6419 26.6663 16.2198 26.9073 16.4611 26.5284L16.6221 26.2753L25.5213 8.20805C25.6701 7.90533 25.4131 7.56037 25.0867 7.62469L21.9568 8.23909C21.6624 8.29669 21.4125 8.01829 21.4954 7.72549L23.5382 0.521333C23.6214 0.227893 23.3699 -0.0508273 23.0755 0.00805266Z" fill="url(#paint1_linear_12_751)"/>
</g>
<defs>
<linearGradient id="paint0_linear_12_751" x1="0.0598775" y1="5.69766" x2="16.3322" y2="27.4202" gradientUnits="userSpaceOnUse">
<stop stop-color="#41D1FF"/>
<stop offset="1" stop-color="#BD34FE"/>
</linearGradient>
<linearGradient id="paint1_linear_12_751" x1="17.4074" y1="0.599093" x2="20.7936" y2="23.4317" gradientUnits="userSpaceOnUse">
<stop stop-color="#FFEA83"/>
<stop offset="0.083" stop-color="#FFDD35"/>
<stop offset="1" stop-color="#FFA800"/>
</linearGradient>
<clipPath id="clip0_12_751">
<rect width="32" height="32" fill="white"/>
</clipPath>
</defs>
</svg>
